<svg width="750" height="375" viewBox="0 0 750 375" fill="none" xmlns="http://www.w3.org/2000/svg">
<path d="M303.285 32.6958L31.9517 70.8292C29.2172 71.2135 27.3119 73.7419 27.6963 76.4764L37.5791 146.797L37.5817 146.816C37.7739 148.183 39.038 149.136 40.4053 148.943C41.4299 148.799 42.2216 148.054 42.4733 147.113L42.5173 146.917L42.5178 146.915C44.8322 136.683 49.2841 126.956 55.6975 118.417C67.6211 102.541 85.3479 92.0719 104.978 89.3131C124.608 86.5542 144.534 91.7314 160.372 103.706L172.643 112.984C174.851 114.653 177.994 114.211 179.656 111.998L188.895 99.6971C194.797 91.8342 202.187 85.2163 210.643 80.2213C219.099 75.2264 228.454 71.9523 238.174 70.5862C247.895 69.2201 257.79 69.7886 267.295 72.2594C276.8 74.7302 285.728 79.0548 293.569 84.9861C301.413 90.9137 308.017 98.3325 313.004 106.818C313.382 107.462 313.751 108.111 314.109 108.765C314.578 109.695 315.601 110.267 316.69 110.114C317.715 109.97 318.506 109.224 318.758 108.284L318.802 108.088C318.849 107.832 318.856 107.563 318.818 107.291C318.7 106.454 318.181 105.772 317.482 105.413C318.178 105.77 318.697 106.448 318.817 107.281L308.932 36.9512C308.548 34.2167 306.02 32.3115 303.285 32.6958Z" fill="#F5BE09"/>
<path d="M46.823 191.891C44.9331 190.001 41.7017 191.34 41.7017 194.012V330.951C41.7017 333.713 43.9402 335.951 46.7017 335.951H320.702C323.463 335.951 325.702 333.713 325.702 330.951V193.649C325.702 190.976 322.47 189.638 320.58 191.528L187.056 325.052C185.103 327.005 181.937 327.005 179.984 325.052L46.823 191.891Z" fill="#F5BE09"/>
<path d="M370.442 135.749H356.162V51.7486H372.122L400.442 117.029L428.762 51.7486H444.602V135.749H430.442V78.9886L405.842 135.749H395.042L370.442 78.9886V135.749Z" fill="#191301"/>
<path d="M456.216 75.7486H469.776V135.749H456.216V75.7486ZM463.056 66.6286C460.576 66.6286 458.496 65.7886 456.816 64.1086C455.136 62.4286 454.296 60.4286 454.296 58.1086C454.296 55.6286 455.136 53.5486 456.816 51.8686C458.496 50.1886 460.576 49.3486 463.056 49.3486C465.456 49.3486 467.496 50.1886 469.176 51.8686C470.856 53.5486 471.696 55.6286 471.696 58.1086C471.696 60.4286 470.856 62.4286 469.176 64.1086C467.496 65.7886 465.456 66.6286 463.056 66.6286Z" fill="#191301"/>
<path d="M480.495 75.7486H492.735L493.695 81.6286C495.695 79.5486 498.055 77.9086 500.775 76.7086C503.575 75.5086 506.575 74.9086 509.775 74.9086C514.495 74.9086 518.535 75.9086 521.895 77.9086C525.335 79.8286 527.975 82.7086 529.815 86.5486C531.655 90.3086 532.575 95.0286 532.575 100.709V135.749H519.015V102.509C519.015 97.4686 517.975 93.6686 515.895 91.1086C513.895 88.5486 510.855 87.2686 506.775 87.2686C502.615 87.2686 499.455 88.5886 497.295 91.2286C495.135 93.7886 494.055 97.5886 494.055 102.629V135.749H480.495V75.7486Z" fill="#191301"/>
<path d="M584.486 84.6286L582.926 84.9886V49.3486H596.486V135.749H584.246L583.286 128.309C581.206 130.629 578.566 132.589 575.366 134.189C572.166 135.789 568.366 136.589 563.966 136.589C558.606 136.589 553.886 135.309 549.806 132.749C545.806 130.189 542.686 126.589 540.446 121.949C538.206 117.309 537.086 111.909 537.086 105.749C537.086 99.5886 538.206 94.1886 540.446 89.5486C542.686 84.9086 545.806 81.3086 549.806 78.7486C553.886 76.1886 558.606 74.9086 563.966 74.9086C568.686 74.9086 572.806 75.8686 576.326 77.7886C579.846 79.6286 582.566 81.9086 584.486 84.6286ZM551.606 105.749C551.606 111.269 553.046 115.749 555.926 119.189C558.806 122.629 562.566 124.349 567.206 124.349C570.006 124.349 572.566 123.629 574.886 122.189C577.286 120.749 579.206 118.669 580.646 115.949C582.166 113.149 582.926 109.749 582.926 105.749C582.926 101.749 582.166 98.3886 580.646 95.6686C579.206 92.8686 577.286 90.7486 574.886 89.3086C572.566 87.8686 570.006 87.1486 567.206 87.1486C562.566 87.1486 558.806 88.8686 555.926 92.3086C553.046 95.7486 551.606 100.229 551.606 105.749Z" fill="#191301"/>
<path d="M370.442 235.749H356.162V151.749H372.122L400.442 217.029L428.762 151.749H444.602V235.749H430.442V178.989L405.842 235.749H395.042L370.442 178.989V235.749Z" fill="#191301"/>
<path d="M490.056 235.749L488.856 228.429C486.936 230.989 484.656 232.949 482.016 234.309C479.376 235.669 475.856 236.349 471.456 236.349C467.296 236.349 463.696 235.669 460.656 234.309C457.616 232.869 455.256 230.909 453.576 228.429C451.976 225.869 451.176 222.909 451.176 219.549C451.176 214.509 453.016 210.309 456.696 206.949C460.456 203.509 465.936 201.389 473.136 200.589L488.856 198.909V194.229C488.856 192.309 488.016 190.589 486.336 189.069C484.656 187.469 481.976 186.669 478.296 186.669C475.096 186.669 472.296 187.469 469.896 189.069C467.576 190.589 466.016 192.909 465.216 196.029L453.456 191.709C454.976 186.429 457.976 182.309 462.456 179.349C467.016 176.389 472.536 174.909 479.016 174.909C486.856 174.909 492.736 176.869 496.656 180.789C500.576 184.709 502.536 189.709 502.536 195.789V235.749H490.056ZM488.856 209.349L474.456 211.149C471.416 211.549 469.136 212.429 467.616 213.789C466.096 215.069 465.336 216.709 465.336 218.709C465.336 220.549 466.056 222.149 467.496 223.509C469.016 224.789 471.056 225.429 473.616 225.429C476.896 225.429 479.656 224.829 481.896 223.629C484.216 222.429 485.936 220.709 487.056 218.469C488.256 216.229 488.856 213.469 488.856 210.189V209.349Z" fill="#191301"/>
<path d="M514.218 175.749V158.949H528.018V175.749H542.058V187.629H528.018V214.269C528.018 217.869 528.698 220.389 530.058 221.829C531.418 223.189 533.178 223.949 535.338 224.109C537.578 224.189 539.818 224.069 542.058 223.749V235.269C538.618 235.989 535.218 236.189 531.858 235.869C528.578 235.629 525.618 234.749 522.978 233.229C520.338 231.629 518.218 229.309 516.618 226.269C515.018 223.229 514.218 219.229 514.218 214.269V187.629H505.818V175.749H514.218Z" fill="#191301"/>
<path d="M550.377 175.749V158.949H564.177V175.749H578.217V187.629H564.177V214.269C564.177 217.869 564.857 220.389 566.217 221.829C567.577 223.189 569.337 223.949 571.497 224.109C573.737 224.189 575.977 224.069 578.217 223.749V235.269C574.777 235.989 571.377 236.189 568.017 235.869C564.737 235.629 561.777 234.749 559.137 233.229C556.497 231.629 554.377 229.309 552.777 226.269C551.177 223.229 550.377 219.229 550.377 214.269V187.629H541.977V175.749H550.377Z" fill="#191301"/>
<path d="M609.576 236.589C603.576 236.589 598.296 235.269 593.736 232.629C589.256 229.989 585.736 226.309 583.176 221.589C580.696 216.869 579.456 211.429 579.456 205.269C579.456 199.429 580.696 194.229 583.176 189.669C585.656 185.109 589.096 181.509 593.496 178.869C597.896 176.229 602.896 174.909 608.496 174.909C614.176 174.909 619.176 176.149 623.496 178.629C627.816 181.109 631.176 184.589 633.576 189.069C636.056 193.469 637.296 198.589 637.296 204.429C637.296 205.389 637.256 206.429 637.176 207.549C637.096 208.589 636.976 209.709 636.816 210.909H594.096C594.496 213.709 595.376 216.149 596.736 218.229C598.176 220.229 599.976 221.789 602.136 222.909C604.296 224.029 606.776 224.589 609.576 224.589C612.936 224.589 615.936 223.909 618.576 222.549C621.296 221.189 623.176 219.389 624.216 217.149L636.096 221.109C633.696 225.909 630.136 229.709 625.416 232.509C620.696 235.229 615.416 236.589 609.576 236.589ZM622.536 199.869C622.456 197.389 621.776 195.149 620.496 193.149C619.216 191.149 617.536 189.589 615.456 188.469C613.376 187.269 611.056 186.669 608.496 186.669C606.256 186.669 604.136 187.229 602.136 188.349C600.136 189.469 598.416 191.029 596.976 193.029C595.616 194.949 594.736 197.229 594.336 199.869H622.536Z" fill="#191301"/>
<path d="M642.879 175.749H655.119L656.199 183.189C657.799 181.189 659.679 179.549 661.839 178.269C663.999 176.909 666.319 175.989 668.799 175.509C671.359 175.029 673.919 175.109 676.479 175.749V188.229C674.399 187.509 672.159 187.349 669.759 187.749C667.439 188.069 665.279 188.949 663.279 190.389C661.279 191.749 659.639 193.709 658.359 196.269C657.079 198.749 656.439 201.829 656.439 205.509V235.749H642.879V175.749Z" fill="#191301"/>
<path d="M688.616 216.429C689.176 218.669 690.136 220.389 691.496 221.589C692.936 222.789 694.496 223.629 696.176 224.109C697.856 224.509 699.456 224.709 700.976 224.709C704.096 224.709 706.536 224.109 708.296 222.909C710.136 221.629 711.056 220.029 711.056 218.109C711.056 216.509 710.456 215.269 709.256 214.389C708.056 213.509 706.496 212.829 704.576 212.349C702.736 211.789 700.816 211.229 698.816 210.669C696.656 210.109 694.336 209.469 691.856 208.749C689.456 208.029 687.176 207.029 685.016 205.749C682.856 204.469 681.096 202.829 679.736 200.829C678.376 198.829 677.696 196.349 677.696 193.389C677.696 189.629 678.736 186.389 680.816 183.669C682.896 180.869 685.736 178.709 689.336 177.189C692.936 175.669 696.976 174.909 701.456 174.909C706.816 174.909 711.456 176.029 715.376 178.269C719.296 180.509 722.136 183.789 723.896 188.109L712.016 191.949C711.456 190.829 710.616 189.869 709.496 189.069C708.456 188.269 707.176 187.709 705.656 187.389C704.216 186.989 702.736 186.789 701.216 186.789C698.656 186.789 696.496 187.309 694.736 188.349C692.976 189.389 692.096 190.869 692.096 192.789C692.096 193.749 692.376 194.589 692.936 195.309C693.576 196.029 694.416 196.629 695.456 197.109C696.496 197.509 697.736 197.909 699.176 198.309C700.616 198.629 702.136 199.029 703.736 199.509C706.296 200.229 708.816 201.029 711.296 201.909C713.856 202.709 716.176 203.749 718.256 205.029C720.416 206.309 722.096 207.989 723.296 210.069C724.576 212.149 725.296 214.789 725.456 217.989C725.456 221.429 724.456 224.589 722.456 227.469C720.456 230.269 717.576 232.509 713.816 234.189C710.136 235.789 705.736 236.589 700.616 236.589C694.696 236.589 689.616 235.309 685.376 232.749C681.136 230.189 678.256 226.069 676.736 220.389L688.616 216.429Z" fill="#191301"/>
<path d="M351.842 293.749C351.842 287.429 352.922 281.669 355.082 276.469C357.322 271.189 360.362 266.669 364.202 262.909C368.122 259.069 372.642 256.109 377.762 254.029C382.962 251.949 388.522 250.909 394.442 250.909C402.682 250.909 410.122 252.869 416.762 256.789C423.482 260.709 428.602 266.349 432.122 273.709L420.482 277.669C418.642 274.149 416.282 271.309 413.402 269.149C410.522 266.989 407.482 265.429 404.282 264.469C401.082 263.509 397.922 263.029 394.802 263.029C389.362 263.029 384.482 264.309 380.162 266.869C375.842 269.349 372.442 272.909 369.962 277.549C367.562 282.109 366.362 287.509 366.362 293.749C366.362 299.909 367.562 305.309 369.962 309.949C372.442 314.509 375.842 318.069 380.162 320.629C384.482 323.189 389.362 324.469 394.802 324.469C398.002 324.469 401.242 323.989 404.522 323.029C407.882 321.989 411.042 320.229 414.002 317.749C417.042 315.189 419.562 311.789 421.562 307.549L433.082 311.269C429.402 319.909 424.162 326.309 417.362 330.469C410.562 334.549 402.922 336.589 394.442 336.589C388.522 336.589 382.962 335.549 377.762 333.469C372.642 331.389 368.122 328.429 364.202 324.589C360.362 320.749 357.322 316.229 355.082 311.029C352.922 305.749 351.842 299.989 351.842 293.749Z" fill="#191301"/>
<path d="M466.528 336.589C460.528 336.589 455.248 335.269 450.688 332.629C446.208 329.989 442.688 326.309 440.128 321.589C437.648 316.869 436.408 311.429 436.408 305.269C436.408 299.429 437.648 294.229 440.128 289.669C442.608 285.109 446.048 281.509 450.448 278.869C454.848 276.229 459.848 274.909 465.448 274.909C471.128 274.909 476.128 276.149 480.448 278.629C484.768 281.109 488.128 284.589 490.528 289.069C493.008 293.469 494.248 298.589 494.248 304.429C494.248 305.389 494.208 306.429 494.128 307.549C494.048 308.589 493.928 309.709 493.768 310.909H451.048C451.448 313.709 452.328 316.149 453.688 318.229C455.128 320.229 456.928 321.789 459.088 322.909C461.248 324.029 463.728 324.589 466.528 324.589C469.888 324.589 472.888 323.909 475.528 322.549C478.248 321.189 480.128 319.389 481.168 317.149L493.048 321.109C490.648 325.909 487.088 329.709 482.368 332.509C477.648 335.229 472.368 336.589 466.528 336.589ZM479.488 299.869C479.408 297.389 478.728 295.149 477.448 293.149C476.168 291.149 474.488 289.589 472.408 288.469C470.328 287.269 468.008 286.669 465.448 286.669C463.208 286.669 461.088 287.229 459.088 288.349C457.088 289.469 455.368 291.029 453.928 293.029C452.568 294.949 451.688 297.229 451.288 299.869H479.488Z" fill="#191301"/>
<path d="M499.831 275.749H512.071L513.031 281.629C515.031 279.549 517.391 277.909 520.111 276.709C522.911 275.509 525.911 274.909 529.111 274.909C533.831 274.909 537.871 275.909 541.231 277.909C544.671 279.829 547.311 282.709 549.151 286.549C550.991 290.309 551.911 295.029 551.911 300.709V335.749H538.351V302.509C538.351 297.469 537.311 293.669 535.231 291.109C533.231 288.549 530.191 287.269 526.111 287.269C521.951 287.269 518.791 288.589 516.631 291.229C514.471 293.789 513.391 297.589 513.391 302.629V335.749H499.831V275.749Z" fill="#191301"/>
<path d="M563.502 275.749V258.949H577.302V275.749H591.342V287.629H577.302V314.269C577.302 317.869 577.982 320.389 579.342 321.829C580.702 323.189 582.462 323.949 584.622 324.109C586.862 324.189 589.102 324.069 591.342 323.749V335.269C587.902 335.989 584.502 336.189 581.142 335.869C577.862 335.629 574.902 334.749 572.262 333.229C569.622 331.629 567.502 329.309 565.902 326.269C564.302 323.229 563.502 319.229 563.502 314.269V287.629H555.102V275.749H563.502Z" fill="#191301"/>
<path d="M622.701 336.589C616.701 336.589 611.421 335.269 606.861 332.629C602.381 329.989 598.861 326.309 596.301 321.589C593.821 316.869 592.581 311.429 592.581 305.269C592.581 299.429 593.821 294.229 596.301 289.669C598.781 285.109 602.221 281.509 606.621 278.869C611.021 276.229 616.021 274.909 621.621 274.909C627.301 274.909 632.301 276.149 636.621 278.629C640.941 281.109 644.301 284.589 646.701 289.069C649.181 293.469 650.421 298.589 650.421 304.429C650.421 305.389 650.381 306.429 650.301 307.549C650.221 308.589 650.101 309.709 649.941 310.909H607.221C607.621 313.709 608.501 316.149 609.861 318.229C611.301 320.229 613.101 321.789 615.261 322.909C617.421 324.029 619.901 324.589 622.701 324.589C626.061 324.589 629.061 323.909 631.701 322.549C634.421 321.189 636.301 319.389 637.341 317.149L649.221 321.109C646.821 325.909 643.261 329.709 638.541 332.509C633.821 335.229 628.541 336.589 622.701 336.589ZM635.661 299.869C635.581 297.389 634.901 295.149 633.621 293.149C632.341 291.149 630.661 289.589 628.581 288.469C626.501 287.269 624.181 286.669 621.621 286.669C619.381 286.669 617.261 287.229 615.261 288.349C613.261 289.469 611.541 291.029 610.101 293.029C608.741 294.949 607.861 297.229 607.461 299.869H635.661Z" fill="#191301"/>
<path d="M656.004 275.749H668.244L669.324 283.189C670.924 281.189 672.804 279.549 674.964 278.269C677.124 276.909 679.444 275.989 681.924 275.509C684.484 275.029 687.044 275.109 689.604 275.749V288.229C687.524 287.509 685.284 287.349 682.884 287.749C680.564 288.069 678.404 288.949 676.404 290.389C674.404 291.749 672.764 293.709 671.484 296.269C670.204 298.749 669.564 301.829 669.564 305.509V335.749H656.004V275.749Z" fill="#191301"/>
</svg>
